# xmcd CD database file
#
# Track frame offsets:
#	150
#	11277
#	25602
#	38052
#	50150
#	65532
#	77722
#	95177
#	112477
#	132452
#	149332
#	166677
#	183522
#	205572
#
# Disc length: 2879 seconds
#
# Revision: 1
# Processed by: cddbd v1.5.1PL0 Copyright (c) Steve Scherf et al.
# Submitted via: CDex 1.40Beta6
#
DISCID=c20b3d0e
DTITLE=Red Wood Central - Behind The Times
DYEAR=2002
DGENRE=Blues
TTITLE0=Murdering Of Ignorance
TTITLE1=Not About Love Anymore
TTITLE2=By Bye Little Bluebird
TTITLE3=Been There Done That
TTITLE4=Lullaby
TTITLE5=Suitcase Blues
TTITLE6=Waking Up
TTITLE7=Drunk Again
TTITLE8=Train Song #21
TTITLE9=This Can't Be Love
TTITLE10=Sneaky Train
TTITLE11=The Good Old Days Have Yet To Come
TTITLE12=These Lyin' Blues
TTITLE13=My House
EXTD=
EXTT0=
EXTT1=
EXTT2=
EXTT3=
EXTT4=
EXTT5=
EXTT6=
EXTT7=
EXTT8=
EXTT9=
EXTT10=
EXTT11=
EXTT12=
EXTT13=
PLAYORDER=
